<?xml version="1.0" standalone="no"?>
<svg xmlns="http://www.w3.org/2000/svg" viewBox="0 0 159 54" width="159" height="54"><g fill="#ff0000" color="#ff0000" transform="translate(57.057 0) scale(0.8461539) "><svg width="52.0" height="34.0" x="0.0" y="0.0" viewBox="0 0 52 34"><title></title><path d="M426,364h-4v-4h4v4Zm8-4h-4v4h4v-4Zm8,0h-4v4h4v-4Zm-16,6h-4v4h4v-4Zm8,0h-4v4h4v-4Zm8,0h-4v4h4v-4Zm14.8-8.4-10-1.7a1,1,0,0,1-.8-1V338.7a1,1,0,0,1,.8-1l10-1.7a1,1,0,0,1,1.2,1v19.6A1,1,0,0,1,456.8,357.6Zm-49.7,0,10-1.7a1,1,0,0,0,.8-1V338.7a1,1,0,0,0-.8-1l-10-1.7a1,1,0,0,0-1.2,1v19.6A1,1,0,0,0,407.2,357.6ZM444,355a1,1,0,0,1-1,1H421a1,1,0,0,1-1-1V339a1,1,0,0,1,1-1h22a1,1,0,0,1,1,1v16Zm-9.2-8.5-5.4-3.2c-0.3-.2-0.4,0-0.4.3V350c0,0.4.1,0.5,0.4,0.3l5.3-3.2C435.1,347,435.2,346.7,434.8,346.5Z" transform="translate(-406 -336)"></path></svg></g><path fill="#ff0000" fill-rule="nonzero" d="M2.83 16.97L0.12 16.97Q0 16.97 0 16.85L0 16.85L0.02 0.36Q0.02 0.26 0.12 0.26L0.12 0.26L2.81 0.26Q2.90 0.26 2.90 0.36L2.90 0.36L2.93 16.85Q2.93 16.97 2.83 16.97L2.83 16.97ZM12.89 16.97L5.14 16.97Q5.04 16.97 5.04 16.85L5.04 16.85L5.06 0.38Q5.06 0.26 5.18 0.26L5.18 0.26L7.85 0.26Q7.97 0.26 7.97 0.38L7.97 0.38L7.94 14.02L12.89 14.02Q13.01 14.02 13.01 14.14L13.01 14.14L13.01 16.85Q13.01 16.97 12.89 16.97L12.89 16.97ZM21.24 17.21L21.24 17.21Q19.94 17.21 18.88 16.55Q17.81 15.89 17.17 14.80Q16.54 13.70 16.54 12.38L16.54 12.38L16.54 11.28Q16.54 11.16 16.66 11.16L16.66 11.16L19.34 11.16Q19.44 11.16 19.44 11.28L19.44 11.28L19.44 12.38Q19.44 13.18 19.97 13.74Q20.50 14.30 21.24 14.30L21.24 14.30Q21.98 14.30 22.51 13.73Q23.04 13.15 23.04 12.38L23.04 12.38Q23.04 11.50 21.89 10.85L21.89 10.85Q21.50 10.63 20.69 10.18Q19.87 9.72 19.15 9.31L19.15 9.31Q17.83 8.54 17.20 7.38Q16.56 6.22 16.56 4.75L16.56 4.75Q16.56 3.41 17.21 2.34Q17.86 1.27 18.92 0.65Q19.99 0.02 21.24 0.02L21.24 0.02Q22.51 0.02 23.58 0.66Q24.65 1.30 25.28 2.36Q25.92 3.43 25.92 4.75L25.92 4.75L25.92 6.72Q25.92 6.82 25.82 6.82L25.82 6.82L23.14 6.82Q23.04 6.82 23.04 6.72L23.04 6.72L23.02 4.75Q23.02 3.91 22.49 3.38Q21.96 2.86 21.24 2.86L21.24 2.86Q20.50 2.86 19.97 3.42Q19.44 3.98 19.44 4.75L19.44 4.75Q19.44 5.54 19.78 6.07Q20.11 6.60 21 7.08L21 7.08Q21.12 7.15 21.47 7.33Q21.82 7.51 22.22 7.74Q22.63 7.97 22.96 8.14Q23.28 8.30 23.35 8.35L23.35 8.35Q24.55 9.02 25.25 10.00Q25.94 10.97 25.94 12.38L25.94 12.38Q25.94 13.75 25.31 14.84Q24.67 15.94 23.60 16.57Q22.54 17.21 21.24 17.21ZM26.33 16.85L26.33 16.85L29.30 0.36Q29.33 0.26 29.42 0.26L29.42 0.26L32.90 0.26Q33 0.26 33.02 0.36L33.02 0.36L35.88 16.85Q35.90 16.97 35.78 16.97L35.78 16.97L33.12 16.97Q33.02 16.97 33 16.85L33 16.85L32.74 15.10L29.47 15.10L29.21 16.85Q29.18 16.97 29.09 16.97L29.09 16.97L26.42 16.97Q26.33 16.97 26.33 16.85ZM31.03 5.78L29.95 12.53L32.26 12.53L31.27 5.78L31.13 4.90L31.03 5.78ZM40.01 16.97L37.61 16.97Q37.42 16.97 37.42 16.80L37.42 16.80L37.39 0.46Q37.39 0.26 37.58 0.26L37.58 0.26L39.74 0.26L43.80 9.72L43.68 0.46Q43.68 0.26 43.90 0.26L43.90 0.26L46.27 0.26Q46.42 0.26 46.42 0.46L46.42 0.46L46.44 16.82Q46.44 16.97 46.32 16.97L46.32 16.97L44.21 16.97L40.06 8.14L40.22 16.78Q40.22 16.97 40.01 16.97L40.01 16.97ZM51.14 16.97L48.74 16.97Q48.55 16.97 48.55 16.80L48.55 16.80L48.53 0.46Q48.53 0.26 48.72 0.26L48.72 0.26L50.88 0.26L54.94 9.72L54.82 0.46Q54.82 0.26 55.03 0.26L55.03 0.26L57.41 0.26Q57.55 0.26 57.55 0.46L57.55 0.46L57.58 16.82Q57.58 16.97 57.46 16.97L57.46 16.97L55.34 16.97L51.19 8.14L51.36 16.78Q51.36 16.97 51.14 16.97L51.14 16.97ZM62.47 16.97L59.78 16.97Q59.66 16.97 59.66 16.85L59.66 16.85L59.71 0.36Q59.71 0.26 59.81 0.26L59.81 0.26L67.49 0.26Q67.61 0.26 67.61 0.36L67.61 0.36L67.61 3.07Q67.61 3.17 67.51 3.17L67.51 3.17L62.59 3.17L62.59 6.89L67.51 6.89Q67.61 6.89 67.61 7.01L67.61 7.01L67.63 9.72Q67.63 9.82 67.51 9.82L67.51 9.82L62.59 9.82L62.59 16.85Q62.59 16.97 62.47 16.97L62.47 16.97ZM77.86 16.97L70.10 16.97Q70.01 16.97 70.01 16.85L70.01 16.85L70.03 0.38Q70.03 0.26 70.15 0.26L70.15 0.26L72.82 0.26Q72.94 0.26 72.94 0.38L72.94 0.38L72.91 14.02L77.86 14.02Q77.98 14.02 77.98 14.14L77.98 14.14L77.98 16.85Q77.98 16.97 77.86 16.97L77.86 16.97ZM82.37 16.97L79.66 16.97Q79.54 16.97 79.54 16.85L79.54 16.85L79.56 0.36Q79.56 0.26 79.66 0.26L79.66 0.26L82.34 0.26Q82.44 0.26 82.44 0.36L82.44 0.36L82.46 16.85Q82.46 16.97 82.37 16.97L82.37 16.97ZM86.52 16.97L83.83 16.97Q83.74 16.97 83.76 16.85L83.76 16.85L86.50 8.28L83.81 0.36Q83.78 0.26 83.88 0.26L83.88 0.26L86.57 0.26Q86.69 0.26 86.71 0.36L86.71 0.36L88.32 6.07L89.95 0.36Q89.98 0.26 90.10 0.26L90.10 0.26L92.76 0.26Q92.86 0.26 92.83 0.36L92.83 0.36L90.14 8.26L92.86 16.85Q92.90 16.97 92.78 16.97L92.78 16.97L90.10 16.97Q90.00 16.97 89.95 16.85L89.95 16.85L88.32 10.66L86.66 16.85Q86.64 16.97 86.52 16.97L86.52 16.97ZM103.66 16.97L100.75 16.97Q100.66 16.97 100.63 16.85L100.63 16.85L97.32 0.36Q97.30 0.26 97.42 0.26L97.42 0.26L100.13 0.26Q100.22 0.26 100.25 0.36L100.25 0.36L102.22 11.35L104.14 0.36Q104.16 0.26 104.26 0.26L104.26 0.26L106.94 0.26Q107.06 0.26 107.04 0.36L107.04 0.36L103.78 16.85Q103.75 16.97 103.66 16.97L103.66 16.97ZM111.29 16.97L108.58 16.97Q108.46 16.97 108.46 16.85L108.46 16.85L108.48 0.36Q108.48 0.26 108.58 0.26L108.58 0.26L111.26 0.26Q111.36 0.26 111.36 0.36L111.36 0.36L111.38 16.85Q111.38 16.97 111.29 16.97L111.29 16.97ZM117.91 16.94L113.62 16.97Q113.50 16.97 113.50 16.85L113.50 16.85L113.54 0.36Q113.54 0.26 113.64 0.26L113.64 0.26L118.13 0.24Q119.45 0.22 120.54 0.86Q121.63 1.51 122.28 2.60Q122.93 3.70 122.93 5.02L122.93 5.02L122.93 11.90Q122.93 13.30 122.26 14.44Q121.58 15.58 120.46 16.25Q119.33 16.92 117.91 16.94L117.91 16.94ZM116.45 3.14L116.42 14.02L117.91 14.02Q118.80 14.02 119.41 13.39Q120.02 12.77 120.02 11.90L120.02 11.90L120.02 4.99Q120.02 4.22 119.46 3.66Q118.90 3.10 118.13 3.12L118.13 3.12L116.45 3.14ZM132.67 16.97L124.92 16.97Q124.82 16.97 124.82 16.85L124.82 16.85L124.85 0.36Q124.85 0.26 124.94 0.26L124.94 0.26L132.65 0.26Q132.74 0.26 132.74 0.38L132.74 0.38L132.74 3.07Q132.74 3.17 132.65 3.17L132.65 3.17L127.73 3.17L127.73 6.91L132.65 6.91Q132.74 6.91 132.74 7.01L132.74 7.01L132.77 9.72Q132.77 9.82 132.67 9.82L132.67 9.82L127.73 9.82L127.73 14.02L132.67 14.02Q132.77 14.02 132.77 14.14L132.77 14.14L132.77 16.87Q132.77 16.97 132.67 16.97L132.67 16.97ZM138.96 17.21L138.96 17.21Q137.66 17.21 136.60 16.55Q135.53 15.89 134.88 14.80Q134.23 13.70 134.23 12.38L134.23 12.38L134.26 4.78Q134.26 3.46 134.89 2.38Q135.53 1.30 136.61 0.65Q137.69 0 138.96 0L138.96 0Q140.26 0 141.31 0.65Q142.37 1.30 143.00 2.38Q143.64 3.46 143.64 4.78L143.64 4.78L143.66 12.38Q143.66 13.70 143.03 14.80Q142.39 15.89 141.32 16.55Q140.26 17.21 138.96 17.21ZM138.96 14.30L138.96 14.30Q139.68 14.30 140.22 13.72Q140.76 13.13 140.76 12.38L140.76 12.38L140.74 4.78Q140.74 3.98 140.23 3.43Q139.73 2.88 138.96 2.88L138.96 2.88Q138.22 2.88 137.69 3.42Q137.16 3.96 137.16 4.78L137.16 4.78L137.16 12.38Q137.16 13.18 137.69 13.74Q138.22 14.30 138.96 14.30ZM154.32 13.90L152.30 13.90Q152.18 13.90 152.18 13.78L152.18 13.78L152.18 9.48L148.78 9.48Q148.63 9.48 148.63 9.36L148.63 9.36L148.63 7.46Q148.63 7.44 148.67 7.38Q148.70 7.32 148.78 7.32L148.78 7.32L152.18 7.32L152.18 2.95Q152.18 2.90 152.30 2.90L152.30 2.90L154.32 2.90Q154.42 2.90 154.42 2.95L154.42 2.95L154.42 7.32L157.99 7.32Q158.11 7.32 158.11 7.46L158.11 7.46L158.11 9.36Q158.11 9.41 158.06 9.44Q158.02 9.48 157.99 9.48L157.99 9.48L154.42 9.48L154.42 13.78Q154.42 13.90 154.32 13.90L154.32 13.90Z" transform="translate(0, 36.77)"></path></svg>